<mxfile host="app.diagrams.net" modified="2023-10-20T17:11:06.081Z" agent="Mozilla/5.0 (Windows NT 10.0; Win64; x64) AppleWebKit/537.36 (KHTML, like Gecko) Chrome/116.0.5845.888 YaBrowser/23.9.2.888 Yowser/2.5 Safari/537.36" etag="RtOuH-bYATZBd2hsJCcO" version="22.0.5" type="device" pages="5">
  <diagram id="prtHgNgQTEPvFCAcTncT" name="Оргструктура">
    <mxGraphModel dx="794" dy="441" grid="1" gridSize="10" guides="1" tooltips="1" connect="1" arrows="1" fold="1" page="1" pageScale="1" pageWidth="827" pageHeight="1169" math="0" shadow="0">
      <root>
        <mxCell id="0" />
        <mxCell id="1" parent="0" />
        <mxCell id="dNxyNK7c78bLwvsdeMH5-11" value="Организационная структура" style="swimlane;html=1;startSize=20;horizontal=1;containerType=tree;glass=0;" parent="1" vertex="1">
          <mxGeometry x="48" y="90" width="730" height="700" as="geometry" />
        </mxCell>
        <UserObject label="%name%&lt;br&gt;&lt;i style=&quot;color: gray&quot;&gt;%position%&lt;/i&gt;&lt;br&gt;&lt;a href=&quot;mailto:%email%&quot;&gt;Email&lt;/a&gt;" name="Компания «Эстетика»" position="Дирекция" placeholders="1" id="dNxyNK7c78bLwvsdeMH5-12">
          <mxCell style="label;image=https://cdn3.iconfinder.com/data/icons/user-avatars-1/512/users-3-128.png;whiteSpace=wrap;html=1;rounded=0;glass=0;treeMoving=1;treeFolding=1;" parent="dNxyNK7c78bLwvsdeMH5-11" vertex="1">
            <mxGeometry x="260" y="40" width="180" height="70" as="geometry" />
          </mxCell>
        </UserObject>
        <mxCell id="dNxyNK7c78bLwvsdeMH5-13" value="" style="endArrow=blockThin;endFill=1;fontSize=11;edgeStyle=elbowEdgeStyle;elbow=vertical;rounded=0;" parent="dNxyNK7c78bLwvsdeMH5-11" source="dNxyNK7c78bLwvsdeMH5-12" target="dNxyNK7c78bLwvsdeMH5-14" edge="1">
          <mxGeometry relative="1" as="geometry" />
        </mxCell>
        <mxCell id="TTlFWgKvvMXzMM15i_On-9" style="edgeStyle=orthogonalEdgeStyle;rounded=0;orthogonalLoop=1;jettySize=auto;html=1;exitX=0.25;exitY=1;exitDx=0;exitDy=0;entryX=0;entryY=0.5;entryDx=0;entryDy=0;" parent="dNxyNK7c78bLwvsdeMH5-11" source="dNxyNK7c78bLwvsdeMH5-14" target="TTlFWgKvvMXzMM15i_On-6" edge="1">
          <mxGeometry relative="1" as="geometry">
            <Array as="points">
              <mxPoint x="70" y="260" />
              <mxPoint x="70" y="315" />
            </Array>
          </mxGeometry>
        </mxCell>
        <mxCell id="TTlFWgKvvMXzMM15i_On-14" style="edgeStyle=orthogonalEdgeStyle;rounded=0;orthogonalLoop=1;jettySize=auto;html=1;exitX=0.25;exitY=1;exitDx=0;exitDy=0;entryX=0;entryY=0.5;entryDx=0;entryDy=0;" parent="dNxyNK7c78bLwvsdeMH5-11" source="dNxyNK7c78bLwvsdeMH5-14" target="TTlFWgKvvMXzMM15i_On-10" edge="1">
          <mxGeometry relative="1" as="geometry">
            <Array as="points">
              <mxPoint x="70" y="260" />
              <mxPoint x="70" y="385" />
            </Array>
          </mxGeometry>
        </mxCell>
        <mxCell id="TTlFWgKvvMXzMM15i_On-15" style="edgeStyle=orthogonalEdgeStyle;rounded=0;orthogonalLoop=1;jettySize=auto;html=1;exitX=0.25;exitY=1;exitDx=0;exitDy=0;entryX=0;entryY=0.5;entryDx=0;entryDy=0;" parent="dNxyNK7c78bLwvsdeMH5-11" source="dNxyNK7c78bLwvsdeMH5-14" target="TTlFWgKvvMXzMM15i_On-11" edge="1">
          <mxGeometry relative="1" as="geometry">
            <Array as="points">
              <mxPoint x="70" y="260" />
              <mxPoint x="70" y="448" />
            </Array>
          </mxGeometry>
        </mxCell>
        <mxCell id="TTlFWgKvvMXzMM15i_On-16" style="edgeStyle=orthogonalEdgeStyle;rounded=0;orthogonalLoop=1;jettySize=auto;html=1;exitX=0.25;exitY=1;exitDx=0;exitDy=0;entryX=0;entryY=0.5;entryDx=0;entryDy=0;" parent="dNxyNK7c78bLwvsdeMH5-11" source="dNxyNK7c78bLwvsdeMH5-14" target="TTlFWgKvvMXzMM15i_On-12" edge="1">
          <mxGeometry relative="1" as="geometry">
            <Array as="points">
              <mxPoint x="70" y="260" />
              <mxPoint x="70" y="515" />
            </Array>
          </mxGeometry>
        </mxCell>
        <mxCell id="TTlFWgKvvMXzMM15i_On-17" style="edgeStyle=orthogonalEdgeStyle;rounded=0;orthogonalLoop=1;jettySize=auto;html=1;exitX=0.25;exitY=1;exitDx=0;exitDy=0;entryX=0;entryY=0.5;entryDx=0;entryDy=0;" parent="dNxyNK7c78bLwvsdeMH5-11" source="dNxyNK7c78bLwvsdeMH5-14" target="TTlFWgKvvMXzMM15i_On-13" edge="1">
          <mxGeometry relative="1" as="geometry">
            <Array as="points">
              <mxPoint x="70" y="260" />
              <mxPoint x="70" y="585" />
            </Array>
          </mxGeometry>
        </mxCell>
        <mxCell id="TTlFWgKvvMXzMM15i_On-24" style="edgeStyle=orthogonalEdgeStyle;rounded=0;orthogonalLoop=1;jettySize=auto;html=1;exitX=0.25;exitY=1;exitDx=0;exitDy=0;entryX=0;entryY=0.5;entryDx=0;entryDy=0;" parent="dNxyNK7c78bLwvsdeMH5-11" source="dNxyNK7c78bLwvsdeMH5-14" target="TTlFWgKvvMXzMM15i_On-23" edge="1">
          <mxGeometry relative="1" as="geometry">
            <Array as="points">
              <mxPoint x="70" y="260" />
              <mxPoint x="70" y="655" />
            </Array>
          </mxGeometry>
        </mxCell>
        <UserObject label="%name%&lt;br&gt;&lt;i style=&quot;color: gray&quot;&gt;%position%&lt;/i&gt;&lt;br&gt;&lt;a href=&quot;mailto:%email%&quot;&gt;Email&lt;/a&gt;" name="Отдел работы с клиентами" position="Отдел" placeholders="1" id="dNxyNK7c78bLwvsdeMH5-14">
          <mxCell style="label;image=https://cdn3.iconfinder.com/data/icons/user-avatars-1/512/users-10-3-128.png;whiteSpace=wrap;html=1;rounded=0;glass=0;treeFolding=1;treeMoving=1;" parent="dNxyNK7c78bLwvsdeMH5-11" vertex="1">
            <mxGeometry x="40" y="180" width="180" height="80" as="geometry" />
          </mxCell>
        </UserObject>
        <mxCell id="dNxyNK7c78bLwvsdeMH5-15" value="" style="endArrow=blockThin;endFill=1;fontSize=11;edgeStyle=elbowEdgeStyle;elbow=vertical;rounded=0;" parent="dNxyNK7c78bLwvsdeMH5-11" source="dNxyNK7c78bLwvsdeMH5-12" target="dNxyNK7c78bLwvsdeMH5-16" edge="1">
          <mxGeometry relative="1" as="geometry" />
        </mxCell>
        <mxCell id="TTlFWgKvvMXzMM15i_On-26" style="edgeStyle=orthogonalEdgeStyle;rounded=0;orthogonalLoop=1;jettySize=auto;html=1;exitX=0.25;exitY=1;exitDx=0;exitDy=0;entryX=0;entryY=0.5;entryDx=0;entryDy=0;" parent="dNxyNK7c78bLwvsdeMH5-11" source="dNxyNK7c78bLwvsdeMH5-16" target="TTlFWgKvvMXzMM15i_On-18" edge="1">
          <mxGeometry relative="1" as="geometry">
            <Array as="points">
              <mxPoint x="290" y="260" />
              <mxPoint x="290" y="313" />
            </Array>
          </mxGeometry>
        </mxCell>
        <mxCell id="TTlFWgKvvMXzMM15i_On-27" style="edgeStyle=orthogonalEdgeStyle;rounded=0;orthogonalLoop=1;jettySize=auto;html=1;exitX=0.25;exitY=1;exitDx=0;exitDy=0;entryX=0;entryY=0.5;entryDx=0;entryDy=0;" parent="dNxyNK7c78bLwvsdeMH5-11" source="dNxyNK7c78bLwvsdeMH5-16" target="TTlFWgKvvMXzMM15i_On-19" edge="1">
          <mxGeometry relative="1" as="geometry">
            <Array as="points">
              <mxPoint x="290" y="260" />
              <mxPoint x="290" y="383" />
            </Array>
          </mxGeometry>
        </mxCell>
        <mxCell id="TTlFWgKvvMXzMM15i_On-28" style="edgeStyle=orthogonalEdgeStyle;rounded=0;orthogonalLoop=1;jettySize=auto;html=1;exitX=0.25;exitY=1;exitDx=0;exitDy=0;entryX=0;entryY=0.5;entryDx=0;entryDy=0;" parent="dNxyNK7c78bLwvsdeMH5-11" source="dNxyNK7c78bLwvsdeMH5-16" target="TTlFWgKvvMXzMM15i_On-20" edge="1">
          <mxGeometry relative="1" as="geometry">
            <Array as="points">
              <mxPoint x="290" y="260" />
              <mxPoint x="290" y="445" />
            </Array>
          </mxGeometry>
        </mxCell>
        <mxCell id="TTlFWgKvvMXzMM15i_On-29" style="edgeStyle=orthogonalEdgeStyle;rounded=0;orthogonalLoop=1;jettySize=auto;html=1;exitX=0.25;exitY=1;exitDx=0;exitDy=0;entryX=0;entryY=0.5;entryDx=0;entryDy=0;" parent="dNxyNK7c78bLwvsdeMH5-11" source="dNxyNK7c78bLwvsdeMH5-16" target="TTlFWgKvvMXzMM15i_On-21" edge="1">
          <mxGeometry relative="1" as="geometry">
            <Array as="points">
              <mxPoint x="290" y="260" />
              <mxPoint x="290" y="513" />
            </Array>
          </mxGeometry>
        </mxCell>
        <UserObject label="%name%&lt;br&gt;&lt;i style=&quot;color: gray&quot;&gt;%position%&lt;/i&gt;&lt;br&gt;&lt;a href=&quot;mailto:%email%&quot;&gt;Email&lt;/a&gt;" name="Производственный отдел" position="Отдел" placeholders="1" id="dNxyNK7c78bLwvsdeMH5-16">
          <mxCell style="label;image=https://cdn3.iconfinder.com/data/icons/user-avatars-1/512/users-9-2-128.png;whiteSpace=wrap;html=1;rounded=0;glass=0;treeFolding=1;treeMoving=1;" parent="dNxyNK7c78bLwvsdeMH5-11" vertex="1">
            <mxGeometry x="260" y="180" width="180" height="80" as="geometry" />
          </mxCell>
        </UserObject>
        <mxCell id="dNxyNK7c78bLwvsdeMH5-17" value="" style="endArrow=blockThin;endFill=1;fontSize=11;edgeStyle=elbowEdgeStyle;elbow=vertical;rounded=0;" parent="dNxyNK7c78bLwvsdeMH5-11" source="dNxyNK7c78bLwvsdeMH5-12" target="dNxyNK7c78bLwvsdeMH5-18" edge="1">
          <mxGeometry relative="1" as="geometry" />
        </mxCell>
        <mxCell id="TTlFWgKvvMXzMM15i_On-30" style="edgeStyle=orthogonalEdgeStyle;rounded=0;orthogonalLoop=1;jettySize=auto;html=1;exitX=0.25;exitY=1;exitDx=0;exitDy=0;entryX=0;entryY=0.5;entryDx=0;entryDy=0;" parent="dNxyNK7c78bLwvsdeMH5-11" source="dNxyNK7c78bLwvsdeMH5-18" target="TTlFWgKvvMXzMM15i_On-25" edge="1">
          <mxGeometry relative="1" as="geometry">
            <Array as="points">
              <mxPoint x="520" y="260" />
              <mxPoint x="520" y="313" />
            </Array>
          </mxGeometry>
        </mxCell>
        <UserObject label="%name%&lt;br&gt;&lt;i style=&quot;color: gray&quot;&gt;%position%&lt;/i&gt;&lt;br&gt;&lt;a href=&quot;mailto:%email%&quot;&gt;Email&lt;/a&gt;" name="Отдел логистики" position="Отдел" placeholders="1" id="dNxyNK7c78bLwvsdeMH5-18">
          <mxCell style="label;image=https://cdn3.iconfinder.com/data/icons/user-avatars-1/512/users-2-128.png;whiteSpace=wrap;html=1;rounded=0;glass=0;" parent="dNxyNK7c78bLwvsdeMH5-11" vertex="1">
            <mxGeometry x="490" y="180" width="180" height="80" as="geometry" />
          </mxCell>
        </UserObject>
        <mxCell id="TTlFWgKvvMXzMM15i_On-6" value="сбор информации о заказе и клиенте" style="rounded=1;whiteSpace=wrap;html=1;" parent="dNxyNK7c78bLwvsdeMH5-11" vertex="1">
          <mxGeometry x="90" y="290" width="130" height="50" as="geometry" />
        </mxCell>
        <mxCell id="TTlFWgKvvMXzMM15i_On-10" value="формирование заказа" style="rounded=1;whiteSpace=wrap;html=1;" parent="dNxyNK7c78bLwvsdeMH5-11" vertex="1">
          <mxGeometry x="90" y="360" width="130" height="50" as="geometry" />
        </mxCell>
        <mxCell id="TTlFWgKvvMXzMM15i_On-11" value="формирование карточки клиента-организации" style="rounded=1;whiteSpace=wrap;html=1;" parent="dNxyNK7c78bLwvsdeMH5-11" vertex="1">
          <mxGeometry x="90" y="425" width="130" height="45" as="geometry" />
        </mxCell>
        <mxCell id="TTlFWgKvvMXzMM15i_On-12" value="прикрепление ответственного за изготовление заказа" style="rounded=1;whiteSpace=wrap;html=1;" parent="dNxyNK7c78bLwvsdeMH5-11" vertex="1">
          <mxGeometry x="90" y="490" width="130" height="50" as="geometry" />
        </mxCell>
        <mxCell id="TTlFWgKvvMXzMM15i_On-13" value="оформление товарного чека в случае предоплаты." style="rounded=1;whiteSpace=wrap;html=1;" parent="dNxyNK7c78bLwvsdeMH5-11" vertex="1">
          <mxGeometry x="90" y="560" width="130" height="50" as="geometry" />
        </mxCell>
        <mxCell id="TTlFWgKvvMXzMM15i_On-18" value="определение типов работ" style="rounded=1;whiteSpace=wrap;html=1;" parent="dNxyNK7c78bLwvsdeMH5-11" vertex="1">
          <mxGeometry x="310" y="287.5" width="130" height="50" as="geometry" />
        </mxCell>
        <mxCell id="TTlFWgKvvMXzMM15i_On-19" value="подготовка материалов" style="rounded=1;whiteSpace=wrap;html=1;" parent="dNxyNK7c78bLwvsdeMH5-11" vertex="1">
          <mxGeometry x="310" y="357.5" width="130" height="50" as="geometry" />
        </mxCell>
        <mxCell id="TTlFWgKvvMXzMM15i_On-20" value="типографические&lt;br/&gt;работы либо оформление в багет" style="rounded=1;whiteSpace=wrap;html=1;" parent="dNxyNK7c78bLwvsdeMH5-11" vertex="1">
          <mxGeometry x="310" y="422.5" width="130" height="45" as="geometry" />
        </mxCell>
        <mxCell id="TTlFWgKvvMXzMM15i_On-21" value="фиксация статуса выполнения" style="rounded=1;whiteSpace=wrap;html=1;" parent="dNxyNK7c78bLwvsdeMH5-11" vertex="1">
          <mxGeometry x="310" y="487.5" width="130" height="50" as="geometry" />
        </mxCell>
        <mxCell id="TTlFWgKvvMXzMM15i_On-23" value="расчет с клиентом, оформление акта выполненных работ" style="rounded=1;whiteSpace=wrap;html=1;" parent="dNxyNK7c78bLwvsdeMH5-11" vertex="1">
          <mxGeometry x="90" y="630" width="130" height="50" as="geometry" />
        </mxCell>
        <mxCell id="TTlFWgKvvMXzMM15i_On-25" value="доставка заказа" style="rounded=1;whiteSpace=wrap;html=1;" parent="dNxyNK7c78bLwvsdeMH5-11" vertex="1">
          <mxGeometry x="540" y="287.5" width="130" height="50" as="geometry" />
        </mxCell>
      </root>
    </mxGraphModel>
  </diagram>
  <diagram id="kQXAFdqe-dN-Ri0wI9z6" name="А-0">
    <mxGraphModel dx="794" dy="547" grid="1" gridSize="10" guides="1" tooltips="1" connect="1" arrows="1" fold="1" page="1" pageScale="1" pageWidth="827" pageHeight="1169" math="0" shadow="0">
      <root>
        <mxCell id="0" />
        <mxCell id="1" parent="0" />
        <mxCell id="hRkRENJHDkmg0VwA-yWb-1" value="Производство печатной продукции и оформлением картин в багет (рамку)" style="rounded=0;whiteSpace=wrap;html=1;" parent="1" vertex="1">
          <mxGeometry x="280" y="140" width="330" height="150" as="geometry" />
        </mxCell>
        <mxCell id="hxfdMufdKnnvvkUvgKSx-1" value="" style="endArrow=classic;html=1;rounded=0;entryX=0.25;entryY=1;entryDx=0;entryDy=0;" parent="1" target="hRkRENJHDkmg0VwA-yWb-1" edge="1">
          <mxGeometry width="50" height="50" relative="1" as="geometry">
            <mxPoint x="363" y="400" as="sourcePoint" />
            <mxPoint x="360" y="200" as="targetPoint" />
          </mxGeometry>
        </mxCell>
        <mxCell id="hxfdMufdKnnvvkUvgKSx-6" value="Сотрудник&amp;nbsp;отдела&lt;br&gt;работы с &lt;br&gt;клиентами" style="edgeLabel;html=1;align=center;verticalAlign=middle;resizable=0;points=[];" parent="hxfdMufdKnnvvkUvgKSx-1" vertex="1" connectable="0">
          <mxGeometry x="-0.4818" y="1" relative="1" as="geometry">
            <mxPoint as="offset" />
          </mxGeometry>
        </mxCell>
        <mxCell id="hxfdMufdKnnvvkUvgKSx-2" value="" style="endArrow=classic;html=1;rounded=0;entryX=0.5;entryY=1;entryDx=0;entryDy=0;" parent="1" target="hRkRENJHDkmg0VwA-yWb-1" edge="1">
          <mxGeometry width="50" height="50" relative="1" as="geometry">
            <mxPoint x="445" y="400" as="sourcePoint" />
            <mxPoint x="360" y="200" as="targetPoint" />
          </mxGeometry>
        </mxCell>
        <mxCell id="hxfdMufdKnnvvkUvgKSx-7" value="Сотрудник &lt;br&gt;производственного&lt;br&gt;отдела" style="edgeLabel;html=1;align=center;verticalAlign=middle;resizable=0;points=[];" parent="hxfdMufdKnnvvkUvgKSx-2" vertex="1" connectable="0">
          <mxGeometry x="-0.2205" relative="1" as="geometry">
            <mxPoint y="-37" as="offset" />
          </mxGeometry>
        </mxCell>
        <mxCell id="hxfdMufdKnnvvkUvgKSx-3" value="" style="endArrow=classic;html=1;rounded=0;entryX=0.75;entryY=1;entryDx=0;entryDy=0;" parent="1" target="hRkRENJHDkmg0VwA-yWb-1" edge="1">
          <mxGeometry width="50" height="50" relative="1" as="geometry">
            <mxPoint x="530" y="410" as="sourcePoint" />
            <mxPoint x="360" y="200" as="targetPoint" />
          </mxGeometry>
        </mxCell>
        <mxCell id="hxfdMufdKnnvvkUvgKSx-8" value="Сотрудник &lt;br&gt;отдела&lt;br&gt;логистики" style="edgeLabel;html=1;align=center;verticalAlign=middle;resizable=0;points=[];" parent="hxfdMufdKnnvvkUvgKSx-3" vertex="1" connectable="0">
          <mxGeometry x="-0.4705" relative="1" as="geometry">
            <mxPoint as="offset" />
          </mxGeometry>
        </mxCell>
        <mxCell id="hxfdMufdKnnvvkUvgKSx-4" value="" style="endArrow=classic;html=1;rounded=0;entryX=0.25;entryY=0;entryDx=0;entryDy=0;" parent="1" edge="1">
          <mxGeometry width="50" height="50" relative="1" as="geometry">
            <mxPoint x="290" y="50" as="sourcePoint" />
            <mxPoint x="290" y="140" as="targetPoint" />
          </mxGeometry>
        </mxCell>
        <mxCell id="hxfdMufdKnnvvkUvgKSx-5" value="Стратегия&lt;br&gt;компании &lt;br&gt;&quot;Эстетика&quot;" style="edgeLabel;html=1;align=center;verticalAlign=middle;resizable=0;points=[];" parent="hxfdMufdKnnvvkUvgKSx-4" vertex="1" connectable="0">
          <mxGeometry x="-0.5917" relative="1" as="geometry">
            <mxPoint as="offset" />
          </mxGeometry>
        </mxCell>
        <mxCell id="hxfdMufdKnnvvkUvgKSx-9" value="" style="endArrow=classic;html=1;rounded=0;entryX=0;entryY=0.25;entryDx=0;entryDy=0;" parent="1" target="hRkRENJHDkmg0VwA-yWb-1" edge="1">
          <mxGeometry width="50" height="50" relative="1" as="geometry">
            <mxPoint x="130" y="180" as="sourcePoint" />
            <mxPoint x="210" y="177.5" as="targetPoint" />
          </mxGeometry>
        </mxCell>
        <mxCell id="FKFEyz7QM1G0fbq5gpNX-1" value="Информация о &lt;br&gt;заказе и клиенте" style="edgeLabel;html=1;align=center;verticalAlign=middle;resizable=0;points=[];" parent="hxfdMufdKnnvvkUvgKSx-9" vertex="1" connectable="0">
          <mxGeometry x="-0.3862" y="3" relative="1" as="geometry">
            <mxPoint x="-10" as="offset" />
          </mxGeometry>
        </mxCell>
        <mxCell id="FKFEyz7QM1G0fbq5gpNX-2" value="" style="endArrow=classic;html=1;rounded=0;exitX=1.006;exitY=0.167;exitDx=0;exitDy=0;exitPerimeter=0;" parent="1" source="hRkRENJHDkmg0VwA-yWb-1" edge="1">
          <mxGeometry width="50" height="50" relative="1" as="geometry">
            <mxPoint x="700" y="163.6" as="sourcePoint" />
            <mxPoint x="740" y="164.1" as="targetPoint" />
          </mxGeometry>
        </mxCell>
        <mxCell id="FKFEyz7QM1G0fbq5gpNX-5" value="Печатная продукция &lt;br&gt;или картина" style="edgeLabel;html=1;align=center;verticalAlign=middle;resizable=0;points=[];" parent="FKFEyz7QM1G0fbq5gpNX-2" vertex="1" connectable="0">
          <mxGeometry x="0.2128" y="1" relative="1" as="geometry">
            <mxPoint x="-14" y="-13" as="offset" />
          </mxGeometry>
        </mxCell>
        <mxCell id="FKFEyz7QM1G0fbq5gpNX-3" value="" style="endArrow=classic;html=1;rounded=0;exitX=1;exitY=0.25;exitDx=0;exitDy=0;" parent="1" edge="1">
          <mxGeometry width="50" height="50" relative="1" as="geometry">
            <mxPoint x="610" y="200.57" as="sourcePoint" />
            <mxPoint x="740" y="200.57" as="targetPoint" />
          </mxGeometry>
        </mxCell>
        <mxCell id="FKFEyz7QM1G0fbq5gpNX-6" value="Договор &lt;br&gt;оказания услуг," style="edgeLabel;html=1;align=center;verticalAlign=middle;resizable=0;points=[];" parent="FKFEyz7QM1G0fbq5gpNX-3" vertex="1" connectable="0">
          <mxGeometry x="-0.1718" relative="1" as="geometry">
            <mxPoint as="offset" />
          </mxGeometry>
        </mxCell>
        <mxCell id="FKFEyz7QM1G0fbq5gpNX-4" value="" style="endArrow=classic;html=1;rounded=0;exitX=1;exitY=0.25;exitDx=0;exitDy=0;" parent="1" edge="1">
          <mxGeometry width="50" height="50" relative="1" as="geometry">
            <mxPoint x="610" y="236.1" as="sourcePoint" />
            <mxPoint x="740" y="236.1" as="targetPoint" />
          </mxGeometry>
        </mxCell>
        <mxCell id="FKFEyz7QM1G0fbq5gpNX-7" value="Акт выполненных&lt;br&gt;работ" style="edgeLabel;html=1;align=center;verticalAlign=middle;resizable=0;points=[];" parent="FKFEyz7QM1G0fbq5gpNX-4" vertex="1" connectable="0">
          <mxGeometry x="-0.1333" y="1" relative="1" as="geometry">
            <mxPoint as="offset" />
          </mxGeometry>
        </mxCell>
        <mxCell id="SlKqFFmJ4wCO0F4vHT0H-1" value="" style="endArrow=classic;html=1;rounded=0;exitX=1;exitY=0.25;exitDx=0;exitDy=0;" parent="1" edge="1">
          <mxGeometry width="50" height="50" relative="1" as="geometry">
            <mxPoint x="610" y="266.1" as="sourcePoint" />
            <mxPoint x="740" y="266.1" as="targetPoint" />
          </mxGeometry>
        </mxCell>
        <mxCell id="SlKqFFmJ4wCO0F4vHT0H-2" value="Товарный чек" style="edgeLabel;html=1;align=center;verticalAlign=middle;resizable=0;points=[];" parent="SlKqFFmJ4wCO0F4vHT0H-1" vertex="1" connectable="0">
          <mxGeometry x="-0.1333" y="1" relative="1" as="geometry">
            <mxPoint as="offset" />
          </mxGeometry>
        </mxCell>
        <mxCell id="X68i1ypiqXZJ-cq9TY89-1" value="" style="endArrow=classic;html=1;rounded=0;" parent="1" edge="1">
          <mxGeometry width="50" height="50" relative="1" as="geometry">
            <mxPoint x="380" y="50" as="sourcePoint" />
            <mxPoint x="380" y="140" as="targetPoint" />
          </mxGeometry>
        </mxCell>
        <mxCell id="X68i1ypiqXZJ-cq9TY89-2" value="Федеральный закон&lt;br&gt;о защите прав&lt;br&gt;потребителя" style="edgeLabel;html=1;align=center;verticalAlign=middle;resizable=0;points=[];" parent="X68i1ypiqXZJ-cq9TY89-1" vertex="1" connectable="0">
          <mxGeometry x="-0.55" y="1" relative="1" as="geometry">
            <mxPoint as="offset" />
          </mxGeometry>
        </mxCell>
        <mxCell id="X68i1ypiqXZJ-cq9TY89-3" value="" style="endArrow=classic;html=1;rounded=0;" parent="1" edge="1">
          <mxGeometry width="50" height="50" relative="1" as="geometry">
            <mxPoint x="480" y="50" as="sourcePoint" />
            <mxPoint x="480" y="140" as="targetPoint" />
          </mxGeometry>
        </mxCell>
        <mxCell id="X68i1ypiqXZJ-cq9TY89-4" value="Нормы техники&lt;br&gt;безопасности" style="edgeLabel;html=1;align=center;verticalAlign=middle;resizable=0;points=[];" parent="X68i1ypiqXZJ-cq9TY89-3" vertex="1" connectable="0">
          <mxGeometry x="-0.5556" relative="1" as="geometry">
            <mxPoint as="offset" />
          </mxGeometry>
        </mxCell>
        <mxCell id="X68i1ypiqXZJ-cq9TY89-5" value="" style="endArrow=classic;html=1;rounded=0;" parent="1" edge="1">
          <mxGeometry width="50" height="50" relative="1" as="geometry">
            <mxPoint x="570" y="50" as="sourcePoint" />
            <mxPoint x="570" y="140" as="targetPoint" />
          </mxGeometry>
        </mxCell>
        <mxCell id="X68i1ypiqXZJ-cq9TY89-6" value="Регламент&lt;br&gt;производства" style="edgeLabel;html=1;align=center;verticalAlign=middle;resizable=0;points=[];" parent="X68i1ypiqXZJ-cq9TY89-5" vertex="1" connectable="0">
          <mxGeometry x="-0.525" y="1" relative="1" as="geometry">
            <mxPoint as="offset" />
          </mxGeometry>
        </mxCell>
      </root>
    </mxGraphModel>
  </diagram>
  <diagram id="PQQwcQloA1NHH73wXUTY" name="А0">
    <mxGraphModel dx="1434" dy="790" grid="1" gridSize="10" guides="1" tooltips="1" connect="1" arrows="1" fold="1" page="1" pageScale="1" pageWidth="827" pageHeight="1169" math="0" shadow="0">
      <root>
        <mxCell id="0" />
        <mxCell id="1" parent="0" />
        <mxCell id="nIFgdi2yjiF-_7_fLgj9-2" value="" style="endArrow=classic;html=1;rounded=0;entryX=0.083;entryY=1;entryDx=0;entryDy=0;entryPerimeter=0;" parent="1" target="4FtxR2Vscfbz68HNCQEV-1" edge="1">
          <mxGeometry width="50" height="50" relative="1" as="geometry">
            <mxPoint x="171" y="670" as="sourcePoint" />
            <mxPoint x="171" y="560" as="targetPoint" />
          </mxGeometry>
        </mxCell>
        <mxCell id="nIFgdi2yjiF-_7_fLgj9-3" value="Сотрудник&amp;nbsp;отдела&lt;br style=&quot;border-color: var(--border-color);&quot;&gt;работы с&lt;br style=&quot;border-color: var(--border-color);&quot;&gt;клиентами" style="edgeLabel;html=1;align=center;verticalAlign=middle;resizable=0;points=[];" parent="nIFgdi2yjiF-_7_fLgj9-2" vertex="1" connectable="0">
          <mxGeometry x="-0.4818" y="1" relative="1" as="geometry">
            <mxPoint as="offset" />
          </mxGeometry>
        </mxCell>
        <mxCell id="nIFgdi2yjiF-_7_fLgj9-4" value="" style="endArrow=classic;html=1;rounded=0;entryX=0.056;entryY=1;entryDx=0;entryDy=0;entryPerimeter=0;" parent="1" target="m5WVfoXaBdNl6SP0FGQa-1" edge="1">
          <mxGeometry width="50" height="50" relative="1" as="geometry">
            <mxPoint x="302" y="667" as="sourcePoint" />
            <mxPoint x="300" y="330" as="targetPoint" />
          </mxGeometry>
        </mxCell>
        <mxCell id="nIFgdi2yjiF-_7_fLgj9-5" value="Сотрудник&lt;br style=&quot;border-color: var(--border-color);&quot;&gt;производственного&lt;br style=&quot;border-color: var(--border-color);&quot;&gt;отдела" style="edgeLabel;html=1;align=center;verticalAlign=middle;resizable=0;points=[];" parent="nIFgdi2yjiF-_7_fLgj9-4" vertex="1" connectable="0">
          <mxGeometry x="-0.2205" relative="1" as="geometry">
            <mxPoint y="-37" as="offset" />
          </mxGeometry>
        </mxCell>
        <mxCell id="nIFgdi2yjiF-_7_fLgj9-6" value="" style="endArrow=classic;html=1;rounded=0;entryX=0.25;entryY=1;entryDx=0;entryDy=0;" parent="1" target="m5WVfoXaBdNl6SP0FGQa-3" edge="1">
          <mxGeometry width="50" height="50" relative="1" as="geometry">
            <mxPoint x="570" y="660" as="sourcePoint" />
            <mxPoint x="710" y="560" as="targetPoint" />
          </mxGeometry>
        </mxCell>
        <mxCell id="nIFgdi2yjiF-_7_fLgj9-7" value="Сотрудник&lt;br style=&quot;border-color: var(--border-color);&quot;&gt;отдела&lt;br style=&quot;border-color: var(--border-color);&quot;&gt;логистики" style="edgeLabel;html=1;align=center;verticalAlign=middle;resizable=0;points=[];" parent="nIFgdi2yjiF-_7_fLgj9-6" vertex="1" connectable="0">
          <mxGeometry x="-0.4705" relative="1" as="geometry">
            <mxPoint as="offset" />
          </mxGeometry>
        </mxCell>
        <mxCell id="nIFgdi2yjiF-_7_fLgj9-8" value="" style="endArrow=classic;html=1;rounded=0;entryX=0.25;entryY=0;entryDx=0;entryDy=0;" parent="1" target="4FtxR2Vscfbz68HNCQEV-1" edge="1">
          <mxGeometry width="50" height="50" relative="1" as="geometry">
            <mxPoint x="190" y="120" as="sourcePoint" />
            <mxPoint x="280" y="160" as="targetPoint" />
          </mxGeometry>
        </mxCell>
        <mxCell id="nIFgdi2yjiF-_7_fLgj9-9" value="Стратегия&lt;br&gt;компании &lt;br&gt;&quot;Эстетика&quot;" style="edgeLabel;html=1;align=center;verticalAlign=middle;resizable=0;points=[];" parent="nIFgdi2yjiF-_7_fLgj9-8" vertex="1" connectable="0">
          <mxGeometry x="-0.5917" relative="1" as="geometry">
            <mxPoint x="-30" as="offset" />
          </mxGeometry>
        </mxCell>
        <mxCell id="nIFgdi2yjiF-_7_fLgj9-10" value="" style="endArrow=classic;html=1;rounded=0;entryX=0;entryY=0.25;entryDx=0;entryDy=0;" parent="1" edge="1">
          <mxGeometry width="50" height="50" relative="1" as="geometry">
            <mxPoint x="40" y="239" as="sourcePoint" />
            <mxPoint x="160" y="238.74999999999997" as="targetPoint" />
          </mxGeometry>
        </mxCell>
        <mxCell id="nIFgdi2yjiF-_7_fLgj9-11" value="Информация о &lt;br&gt;заказе и клиенте" style="edgeLabel;html=1;align=center;verticalAlign=middle;resizable=0;points=[];" parent="nIFgdi2yjiF-_7_fLgj9-10" vertex="1" connectable="0">
          <mxGeometry x="-0.3862" y="3" relative="1" as="geometry">
            <mxPoint x="-10" as="offset" />
          </mxGeometry>
        </mxCell>
        <mxCell id="nIFgdi2yjiF-_7_fLgj9-12" value="" style="endArrow=classic;html=1;rounded=0;" parent="1" source="m5WVfoXaBdNl6SP0FGQa-1" edge="1">
          <mxGeometry width="50" height="50" relative="1" as="geometry">
            <mxPoint x="790" y="300.7" as="sourcePoint" />
            <mxPoint x="920" y="340" as="targetPoint" />
          </mxGeometry>
        </mxCell>
        <mxCell id="nIFgdi2yjiF-_7_fLgj9-13" value="Печатная продукция &lt;br&gt;или картина" style="edgeLabel;html=1;align=center;verticalAlign=middle;resizable=0;points=[];" parent="nIFgdi2yjiF-_7_fLgj9-12" vertex="1" connectable="0">
          <mxGeometry x="0.2128" y="1" relative="1" as="geometry">
            <mxPoint x="117" y="-20" as="offset" />
          </mxGeometry>
        </mxCell>
        <mxCell id="nIFgdi2yjiF-_7_fLgj9-14" value="" style="endArrow=classic;html=1;rounded=0;" parent="1" source="4FtxR2Vscfbz68HNCQEV-1" edge="1">
          <mxGeometry width="50" height="50" relative="1" as="geometry">
            <mxPoint x="780" y="260" as="sourcePoint" />
            <mxPoint x="920" y="240" as="targetPoint" />
          </mxGeometry>
        </mxCell>
        <mxCell id="nIFgdi2yjiF-_7_fLgj9-15" value="Договор &lt;br&gt;оказания услуг," style="edgeLabel;html=1;align=center;verticalAlign=middle;resizable=0;points=[];" parent="nIFgdi2yjiF-_7_fLgj9-14" vertex="1" connectable="0">
          <mxGeometry x="-0.1718" relative="1" as="geometry">
            <mxPoint x="323" as="offset" />
          </mxGeometry>
        </mxCell>
        <mxCell id="nIFgdi2yjiF-_7_fLgj9-16" value="" style="endArrow=classic;html=1;rounded=0;exitX=1;exitY=0.75;exitDx=0;exitDy=0;" parent="1" source="m5WVfoXaBdNl6SP0FGQa-2" edge="1">
          <mxGeometry width="50" height="50" relative="1" as="geometry">
            <mxPoint x="797" y="570" as="sourcePoint" />
            <mxPoint x="920" y="570" as="targetPoint" />
          </mxGeometry>
        </mxCell>
        <mxCell id="nIFgdi2yjiF-_7_fLgj9-17" value="Акт выполненных&lt;br&gt;работ" style="edgeLabel;html=1;align=center;verticalAlign=middle;resizable=0;points=[];" parent="nIFgdi2yjiF-_7_fLgj9-16" vertex="1" connectable="0">
          <mxGeometry x="-0.1333" y="1" relative="1" as="geometry">
            <mxPoint as="offset" />
          </mxGeometry>
        </mxCell>
        <mxCell id="nIFgdi2yjiF-_7_fLgj9-18" value="" style="endArrow=classic;html=1;rounded=0;exitX=1;exitY=0.5;exitDx=0;exitDy=0;" parent="1" edge="1">
          <mxGeometry width="50" height="50" relative="1" as="geometry">
            <mxPoint x="280" y="220.5" as="sourcePoint" />
            <mxPoint x="920" y="220" as="targetPoint" />
          </mxGeometry>
        </mxCell>
        <mxCell id="nIFgdi2yjiF-_7_fLgj9-19" value="Товарный чек" style="edgeLabel;html=1;align=center;verticalAlign=middle;resizable=0;points=[];" parent="nIFgdi2yjiF-_7_fLgj9-18" vertex="1" connectable="0">
          <mxGeometry x="-0.1333" y="1" relative="1" as="geometry">
            <mxPoint x="310" y="-9" as="offset" />
          </mxGeometry>
        </mxCell>
        <mxCell id="4FtxR2Vscfbz68HNCQEV-1" value="Оформление &lt;br&gt;заказа&lt;br&gt;А1" style="rounded=0;whiteSpace=wrap;html=1;" parent="1" vertex="1">
          <mxGeometry x="160" y="210" width="120" height="60" as="geometry" />
        </mxCell>
        <mxCell id="4FtxR2Vscfbz68HNCQEV-2" value="" style="endArrow=classic;html=1;rounded=0;entryX=0.5;entryY=0;entryDx=0;entryDy=0;" parent="1" target="4FtxR2Vscfbz68HNCQEV-1" edge="1">
          <mxGeometry width="50" height="50" relative="1" as="geometry">
            <mxPoint x="220" y="120" as="sourcePoint" />
            <mxPoint x="250" y="180" as="targetPoint" />
          </mxGeometry>
        </mxCell>
        <mxCell id="4FtxR2Vscfbz68HNCQEV-3" value="Федеральный закон&lt;br&gt;о защите прав&lt;br&gt;потребителя" style="edgeLabel;html=1;align=center;verticalAlign=middle;resizable=0;points=[];" parent="4FtxR2Vscfbz68HNCQEV-2" vertex="1" connectable="0">
          <mxGeometry x="-0.55" y="1" relative="1" as="geometry">
            <mxPoint x="29" y="10" as="offset" />
          </mxGeometry>
        </mxCell>
        <mxCell id="4FtxR2Vscfbz68HNCQEV-4" value="" style="endArrow=classic;html=1;rounded=0;" parent="1" target="m5WVfoXaBdNl6SP0FGQa-1" edge="1">
          <mxGeometry width="50" height="50" relative="1" as="geometry">
            <mxPoint x="380" y="120" as="sourcePoint" />
            <mxPoint x="410.48" y="270" as="targetPoint" />
          </mxGeometry>
        </mxCell>
        <mxCell id="4FtxR2Vscfbz68HNCQEV-5" value="Нормы техники&lt;br&gt;безопасности" style="edgeLabel;html=1;align=center;verticalAlign=middle;resizable=0;points=[];" parent="4FtxR2Vscfbz68HNCQEV-4" vertex="1" connectable="0">
          <mxGeometry x="-0.5556" relative="1" as="geometry">
            <mxPoint y="-14" as="offset" />
          </mxGeometry>
        </mxCell>
        <mxCell id="4FtxR2Vscfbz68HNCQEV-6" value="" style="endArrow=classic;html=1;rounded=0;entryX=0.878;entryY=-0.017;entryDx=0;entryDy=0;entryPerimeter=0;" parent="1" target="m5WVfoXaBdNl6SP0FGQa-1" edge="1">
          <mxGeometry width="50" height="50" relative="1" as="geometry">
            <mxPoint x="450" y="120" as="sourcePoint" />
            <mxPoint x="510" y="210" as="targetPoint" />
          </mxGeometry>
        </mxCell>
        <mxCell id="4FtxR2Vscfbz68HNCQEV-7" value="Регламент&lt;br&gt;производства" style="edgeLabel;html=1;align=center;verticalAlign=middle;resizable=0;points=[];" parent="4FtxR2Vscfbz68HNCQEV-6" vertex="1" connectable="0">
          <mxGeometry x="-0.525" y="1" relative="1" as="geometry">
            <mxPoint y="25" as="offset" />
          </mxGeometry>
        </mxCell>
        <mxCell id="m5WVfoXaBdNl6SP0FGQa-1" value="Производственные работы&lt;br&gt;А2" style="rounded=0;whiteSpace=wrap;html=1;" parent="1" vertex="1">
          <mxGeometry x="290" y="310" width="180" height="60" as="geometry" />
        </mxCell>
        <mxCell id="m5WVfoXaBdNl6SP0FGQa-2" value="Работа с клиентом после производства&lt;br&gt;А4" style="rounded=0;whiteSpace=wrap;html=1;" parent="1" vertex="1">
          <mxGeometry x="630" y="525" width="120" height="60" as="geometry" />
        </mxCell>
        <mxCell id="m5WVfoXaBdNl6SP0FGQa-3" value="Доставка &lt;br&gt;продукции&lt;br&gt;А3" style="rounded=0;whiteSpace=wrap;html=1;" parent="1" vertex="1">
          <mxGeometry x="540" y="400" width="120" height="60" as="geometry" />
        </mxCell>
        <mxCell id="KB3psXozTOciMNaWfgeM-1" value="" style="endArrow=classic;html=1;rounded=0;entryX=0.061;entryY=0.033;entryDx=0;entryDy=0;entryPerimeter=0;" parent="1" target="m5WVfoXaBdNl6SP0FGQa-1" edge="1">
          <mxGeometry width="50" height="50" relative="1" as="geometry">
            <mxPoint x="280" y="260" as="sourcePoint" />
            <mxPoint x="331" y="270" as="targetPoint" />
            <Array as="points">
              <mxPoint x="300" y="260" />
            </Array>
          </mxGeometry>
        </mxCell>
        <mxCell id="KB3psXozTOciMNaWfgeM-2" value="Сформированный&lt;br&gt;заказ" style="edgeLabel;html=1;align=center;verticalAlign=middle;resizable=0;points=[];labelBackgroundColor=none;" parent="KB3psXozTOciMNaWfgeM-1" vertex="1" connectable="0">
          <mxGeometry x="-0.2" relative="1" as="geometry">
            <mxPoint x="-50" y="20" as="offset" />
          </mxGeometry>
        </mxCell>
        <mxCell id="KB3psXozTOciMNaWfgeM-3" value="" style="endArrow=classic;html=1;rounded=0;exitX=1;exitY=0.75;exitDx=0;exitDy=0;entryX=0;entryY=0.5;entryDx=0;entryDy=0;" parent="1" target="m5WVfoXaBdNl6SP0FGQa-3" edge="1">
          <mxGeometry width="50" height="50" relative="1" as="geometry">
            <mxPoint x="470" y="350" as="sourcePoint" />
            <mxPoint x="520" y="530" as="targetPoint" />
            <Array as="points">
              <mxPoint x="520" y="350" />
              <mxPoint x="520" y="430" />
            </Array>
          </mxGeometry>
        </mxCell>
        <mxCell id="KB3psXozTOciMNaWfgeM-4" value="Готовая продукция&lt;br&gt;к доставке" style="edgeLabel;html=1;align=center;verticalAlign=middle;resizable=0;points=[];" parent="KB3psXozTOciMNaWfgeM-3" vertex="1" connectable="0">
          <mxGeometry x="0.4486" relative="1" as="geometry">
            <mxPoint x="-50" y="1" as="offset" />
          </mxGeometry>
        </mxCell>
        <mxCell id="KB3psXozTOciMNaWfgeM-5" value="" style="endArrow=classic;html=1;rounded=0;entryX=0.25;entryY=1;entryDx=0;entryDy=0;" parent="1" target="m5WVfoXaBdNl6SP0FGQa-2" edge="1">
          <mxGeometry width="50" height="50" relative="1" as="geometry">
            <mxPoint x="170" y="640" as="sourcePoint" />
            <mxPoint x="660" y="490" as="targetPoint" />
            <Array as="points">
              <mxPoint x="660" y="640" />
            </Array>
          </mxGeometry>
        </mxCell>
        <mxCell id="KB3psXozTOciMNaWfgeM-10" value="" style="endArrow=classic;html=1;rounded=0;" parent="1" target="m5WVfoXaBdNl6SP0FGQa-3" edge="1">
          <mxGeometry width="50" height="50" relative="1" as="geometry">
            <mxPoint x="220" y="170" as="sourcePoint" />
            <mxPoint x="440" y="380" as="targetPoint" />
            <Array as="points">
              <mxPoint x="600" y="170" />
            </Array>
          </mxGeometry>
        </mxCell>
        <mxCell id="KB3psXozTOciMNaWfgeM-11" value="" style="endArrow=classic;html=1;rounded=0;exitX=1;exitY=0.5;exitDx=0;exitDy=0;entryX=0.5;entryY=0;entryDx=0;entryDy=0;" parent="1" source="m5WVfoXaBdNl6SP0FGQa-3" target="m5WVfoXaBdNl6SP0FGQa-2" edge="1">
          <mxGeometry width="50" height="50" relative="1" as="geometry">
            <mxPoint x="390" y="430" as="sourcePoint" />
            <mxPoint x="720" y="460" as="targetPoint" />
            <Array as="points">
              <mxPoint x="690" y="430" />
            </Array>
          </mxGeometry>
        </mxCell>
        <mxCell id="KB3psXozTOciMNaWfgeM-14" value="Доставленная&lt;br&gt;продукция" style="edgeLabel;html=1;align=center;verticalAlign=middle;resizable=0;points=[];" parent="KB3psXozTOciMNaWfgeM-11" vertex="1" connectable="0">
          <mxGeometry x="0.04" y="-2" relative="1" as="geometry">
            <mxPoint x="-38" y="15" as="offset" />
          </mxGeometry>
        </mxCell>
        <mxCell id="KB3psXozTOciMNaWfgeM-13" value="" style="endArrow=classic;html=1;rounded=0;entryX=0.914;entryY=0.011;entryDx=0;entryDy=0;entryPerimeter=0;" parent="1" target="m5WVfoXaBdNl6SP0FGQa-2" edge="1">
          <mxGeometry width="50" height="50" relative="1" as="geometry">
            <mxPoint x="740" y="340" as="sourcePoint" />
            <mxPoint x="440" y="380" as="targetPoint" />
          </mxGeometry>
        </mxCell>
        <mxCell id="AAdpPaE-d0YOfr8Zn-p3-1" value="" style="endArrow=classic;html=1;rounded=0;entryX=0.694;entryY=0;entryDx=0;entryDy=0;entryPerimeter=0;" parent="1" target="m5WVfoXaBdNl6SP0FGQa-2" edge="1">
          <mxGeometry width="50" height="50" relative="1" as="geometry">
            <mxPoint x="600" y="170" as="sourcePoint" />
            <mxPoint x="710" y="510" as="targetPoint" />
            <Array as="points">
              <mxPoint x="713" y="170" />
            </Array>
          </mxGeometry>
        </mxCell>
      </root>
    </mxGraphModel>
  </diagram>
  <diagram id="Q1jCxJiYwobvvV4aPa-y" name="А1">
    <mxGraphModel dx="1434" dy="790" grid="1" gridSize="10" guides="1" tooltips="1" connect="1" arrows="1" fold="1" page="1" pageScale="1" pageWidth="827" pageHeight="1169" math="0" shadow="0">
      <root>
        <mxCell id="0" />
        <mxCell id="1" parent="0" />
        <mxCell id="wN2fzHC4Zyl2GByigCm7-1" value="" style="endArrow=classic;html=1;rounded=0;" parent="1" target="h0YCEhTa5CzZRNZ8RaCe-1" edge="1">
          <mxGeometry width="50" height="50" relative="1" as="geometry">
            <mxPoint x="210" y="670" as="sourcePoint" />
            <mxPoint x="200" y="530" as="targetPoint" />
          </mxGeometry>
        </mxCell>
        <mxCell id="wN2fzHC4Zyl2GByigCm7-2" value="Сотрудник&amp;nbsp;отдела&lt;br style=&quot;border-color: var(--border-color);&quot;&gt;работы с&lt;br style=&quot;border-color: var(--border-color);&quot;&gt;клиентами" style="edgeLabel;html=1;align=center;verticalAlign=middle;resizable=0;points=[];" parent="wN2fzHC4Zyl2GByigCm7-1" vertex="1" connectable="0">
          <mxGeometry x="-0.4818" y="1" relative="1" as="geometry">
            <mxPoint x="205" y="54" as="offset" />
          </mxGeometry>
        </mxCell>
        <mxCell id="wN2fzHC4Zyl2GByigCm7-7" value="" style="endArrow=classic;html=1;rounded=0;entryX=0.25;entryY=0;entryDx=0;entryDy=0;" parent="1" target="h0YCEhTa5CzZRNZ8RaCe-1" edge="1">
          <mxGeometry width="50" height="50" relative="1" as="geometry">
            <mxPoint x="175" y="120" as="sourcePoint" />
            <mxPoint x="160" y="210" as="targetPoint" />
          </mxGeometry>
        </mxCell>
        <mxCell id="wN2fzHC4Zyl2GByigCm7-8" value="Стратегия&lt;br&gt;компании &lt;br&gt;&quot;Эстетика&quot;" style="edgeLabel;html=1;align=center;verticalAlign=middle;resizable=0;points=[];" parent="wN2fzHC4Zyl2GByigCm7-7" vertex="1" connectable="0">
          <mxGeometry x="-0.5917" relative="1" as="geometry">
            <mxPoint x="-30" as="offset" />
          </mxGeometry>
        </mxCell>
        <mxCell id="wN2fzHC4Zyl2GByigCm7-9" value="" style="endArrow=classic;html=1;rounded=0;entryX=0;entryY=0.25;entryDx=0;entryDy=0;" parent="1" edge="1">
          <mxGeometry width="50" height="50" relative="1" as="geometry">
            <mxPoint x="20" y="254.75" as="sourcePoint" />
            <mxPoint x="140" y="254.5" as="targetPoint" />
          </mxGeometry>
        </mxCell>
        <mxCell id="wN2fzHC4Zyl2GByigCm7-10" value="Информация о &lt;br&gt;заказе и клиенте" style="edgeLabel;html=1;align=center;verticalAlign=middle;resizable=0;points=[];" parent="wN2fzHC4Zyl2GByigCm7-9" vertex="1" connectable="0">
          <mxGeometry x="-0.3862" y="3" relative="1" as="geometry">
            <mxPoint x="-10" as="offset" />
          </mxGeometry>
        </mxCell>
        <mxCell id="wN2fzHC4Zyl2GByigCm7-13" value="" style="endArrow=classic;html=1;rounded=0;exitX=1;exitY=0.25;exitDx=0;exitDy=0;" parent="1" source="h0YCEhTa5CzZRNZ8RaCe-7" edge="1">
          <mxGeometry width="50" height="50" relative="1" as="geometry">
            <mxPoint x="740" y="420" as="sourcePoint" />
            <mxPoint x="800" y="420" as="targetPoint" />
            <Array as="points">
              <mxPoint x="680" y="440" />
              <mxPoint x="680" y="420" />
            </Array>
          </mxGeometry>
        </mxCell>
        <mxCell id="wN2fzHC4Zyl2GByigCm7-14" value="Договор &lt;br&gt;оказания услуг," style="edgeLabel;html=1;align=center;verticalAlign=middle;resizable=0;points=[];" parent="wN2fzHC4Zyl2GByigCm7-13" vertex="1" connectable="0">
          <mxGeometry x="-0.1718" relative="1" as="geometry">
            <mxPoint x="81" y="-40" as="offset" />
          </mxGeometry>
        </mxCell>
        <mxCell id="wN2fzHC4Zyl2GByigCm7-17" value="" style="endArrow=classic;html=1;rounded=0;exitX=1;exitY=0.5;exitDx=0;exitDy=0;" parent="1" source="h0YCEhTa5CzZRNZ8RaCe-8" edge="1">
          <mxGeometry width="50" height="50" relative="1" as="geometry">
            <mxPoint x="740" y="519.47" as="sourcePoint" />
            <mxPoint x="800" y="519.47" as="targetPoint" />
          </mxGeometry>
        </mxCell>
        <mxCell id="wN2fzHC4Zyl2GByigCm7-18" value="Товарный чек" style="edgeLabel;html=1;align=center;verticalAlign=middle;resizable=0;points=[];" parent="wN2fzHC4Zyl2GByigCm7-17" vertex="1" connectable="0">
          <mxGeometry x="-0.1333" y="1" relative="1" as="geometry">
            <mxPoint x="28" y="21" as="offset" />
          </mxGeometry>
        </mxCell>
        <mxCell id="wN2fzHC4Zyl2GByigCm7-20" value="" style="endArrow=classic;html=1;rounded=0;" parent="1" target="h0YCEhTa5CzZRNZ8RaCe-1" edge="1">
          <mxGeometry width="50" height="50" relative="1" as="geometry">
            <mxPoint x="500" y="120" as="sourcePoint" />
            <mxPoint x="270" y="220" as="targetPoint" />
            <Array as="points">
              <mxPoint x="500" y="160" />
              <mxPoint x="210" y="160" />
            </Array>
          </mxGeometry>
        </mxCell>
        <mxCell id="wN2fzHC4Zyl2GByigCm7-21" value="Федеральный закон&lt;br&gt;о защите прав&lt;br&gt;потребителя" style="edgeLabel;html=1;align=center;verticalAlign=middle;resizable=0;points=[];" parent="wN2fzHC4Zyl2GByigCm7-20" vertex="1" connectable="0">
          <mxGeometry x="-0.55" y="1" relative="1" as="geometry">
            <mxPoint x="-21" y="-31" as="offset" />
          </mxGeometry>
        </mxCell>
        <mxCell id="wN2fzHC4Zyl2GByigCm7-29" value="" style="endArrow=classic;html=1;rounded=0;exitX=1;exitY=0.5;exitDx=0;exitDy=0;" parent="1" source="h0YCEhTa5CzZRNZ8RaCe-7" edge="1">
          <mxGeometry width="50" height="50" relative="1" as="geometry">
            <mxPoint x="680" y="450" as="sourcePoint" />
            <mxPoint x="800" y="450" as="targetPoint" />
            <Array as="points" />
          </mxGeometry>
        </mxCell>
        <mxCell id="wN2fzHC4Zyl2GByigCm7-30" value="Сформированный&lt;br&gt;заказ" style="edgeLabel;html=1;align=center;verticalAlign=middle;resizable=0;points=[];labelBackgroundColor=none;" parent="wN2fzHC4Zyl2GByigCm7-29" vertex="1" connectable="0">
          <mxGeometry x="-0.2" relative="1" as="geometry">
            <mxPoint x="82" y="20" as="offset" />
          </mxGeometry>
        </mxCell>
        <mxCell id="hZXrWDpCHOoBqw46GqGB-2" style="edgeStyle=orthogonalEdgeStyle;rounded=0;orthogonalLoop=1;jettySize=auto;html=1;exitX=1;exitY=0.5;exitDx=0;exitDy=0;entryX=0.5;entryY=0;entryDx=0;entryDy=0;" parent="1" source="h0YCEhTa5CzZRNZ8RaCe-1" target="h0YCEhTa5CzZRNZ8RaCe-6" edge="1">
          <mxGeometry relative="1" as="geometry" />
        </mxCell>
        <mxCell id="hZXrWDpCHOoBqw46GqGB-8" value="Информация о&lt;br style=&quot;border-color: var(--border-color);&quot;&gt;заказе и клиенте" style="edgeLabel;html=1;align=center;verticalAlign=middle;resizable=0;points=[];" parent="hZXrWDpCHOoBqw46GqGB-2" vertex="1" connectable="0">
          <mxGeometry x="-0.3647" y="4" relative="1" as="geometry">
            <mxPoint y="-11" as="offset" />
          </mxGeometry>
        </mxCell>
        <mxCell id="hZXrWDpCHOoBqw46GqGB-3" style="edgeStyle=orthogonalEdgeStyle;rounded=0;orthogonalLoop=1;jettySize=auto;html=1;exitX=1;exitY=0.5;exitDx=0;exitDy=0;entryX=0.5;entryY=0;entryDx=0;entryDy=0;" parent="1" source="h0YCEhTa5CzZRNZ8RaCe-1" target="h0YCEhTa5CzZRNZ8RaCe-5" edge="1">
          <mxGeometry relative="1" as="geometry" />
        </mxCell>
        <mxCell id="h0YCEhTa5CzZRNZ8RaCe-1" value="Сбор информации о заказе и клиенте" style="rounded=0;whiteSpace=wrap;html=1;" parent="1" vertex="1">
          <mxGeometry x="140" y="240" width="140" height="30" as="geometry" />
        </mxCell>
        <mxCell id="h0YCEhTa5CzZRNZ8RaCe-5" value="Формирование&lt;br/&gt;заказа" style="rounded=0;whiteSpace=wrap;html=1;" parent="1" vertex="1">
          <mxGeometry x="240" y="300" width="130" height="30" as="geometry" />
        </mxCell>
        <mxCell id="hZXrWDpCHOoBqw46GqGB-1" style="edgeStyle=orthogonalEdgeStyle;rounded=0;orthogonalLoop=1;jettySize=auto;html=1;exitX=1;exitY=0.5;exitDx=0;exitDy=0;entryX=0.5;entryY=0;entryDx=0;entryDy=0;" parent="1" source="h0YCEhTa5CzZRNZ8RaCe-6" target="h0YCEhTa5CzZRNZ8RaCe-7" edge="1">
          <mxGeometry relative="1" as="geometry" />
        </mxCell>
        <mxCell id="h0YCEhTa5CzZRNZ8RaCe-6" value="Формирование&lt;br/&gt;карточки клиента-организации" style="rounded=0;whiteSpace=wrap;html=1;" parent="1" vertex="1">
          <mxGeometry x="410" y="330" width="130" height="40" as="geometry" />
        </mxCell>
        <mxCell id="h0YCEhTa5CzZRNZ8RaCe-7" value="Прикрепление&lt;br&gt;ответственного за изготовление сотрудника" style="rounded=0;whiteSpace=wrap;html=1;" parent="1" vertex="1">
          <mxGeometry x="430" y="430" width="150" height="40" as="geometry" />
        </mxCell>
        <mxCell id="h0YCEhTa5CzZRNZ8RaCe-8" value="Оформление&lt;br/&gt;товарного чека в случае предоплаты" style="rounded=0;whiteSpace=wrap;html=1;" parent="1" vertex="1">
          <mxGeometry x="550" y="500" width="130" height="40" as="geometry" />
        </mxCell>
        <mxCell id="h0YCEhTa5CzZRNZ8RaCe-9" value="" style="endArrow=classic;html=1;rounded=0;entryX=0.5;entryY=1;entryDx=0;entryDy=0;" parent="1" target="h0YCEhTa5CzZRNZ8RaCe-5" edge="1">
          <mxGeometry width="50" height="50" relative="1" as="geometry">
            <mxPoint x="210" y="600" as="sourcePoint" />
            <mxPoint x="440" y="310" as="targetPoint" />
            <Array as="points">
              <mxPoint x="305" y="600" />
            </Array>
          </mxGeometry>
        </mxCell>
        <mxCell id="h0YCEhTa5CzZRNZ8RaCe-10" value="" style="endArrow=classic;html=1;rounded=0;entryX=0.081;entryY=1.013;entryDx=0;entryDy=0;entryPerimeter=0;" parent="1" target="h0YCEhTa5CzZRNZ8RaCe-6" edge="1">
          <mxGeometry width="50" height="50" relative="1" as="geometry">
            <mxPoint x="290" y="600" as="sourcePoint" />
            <mxPoint x="440" y="310" as="targetPoint" />
            <Array as="points">
              <mxPoint x="360" y="600" />
              <mxPoint x="360" y="410" />
              <mxPoint x="421" y="410" />
            </Array>
          </mxGeometry>
        </mxCell>
        <mxCell id="h0YCEhTa5CzZRNZ8RaCe-11" value="" style="endArrow=classic;html=1;rounded=0;entryX=0.25;entryY=1;entryDx=0;entryDy=0;" parent="1" target="h0YCEhTa5CzZRNZ8RaCe-7" edge="1">
          <mxGeometry width="50" height="50" relative="1" as="geometry">
            <mxPoint x="360" y="600" as="sourcePoint" />
            <mxPoint x="437" y="400" as="targetPoint" />
            <Array as="points">
              <mxPoint x="468" y="600" />
            </Array>
          </mxGeometry>
        </mxCell>
        <mxCell id="h0YCEhTa5CzZRNZ8RaCe-12" value="" style="endArrow=classic;html=1;rounded=0;entryX=0.5;entryY=1;entryDx=0;entryDy=0;" parent="1" target="h0YCEhTa5CzZRNZ8RaCe-8" edge="1">
          <mxGeometry width="50" height="50" relative="1" as="geometry">
            <mxPoint x="460" y="600" as="sourcePoint" />
            <mxPoint x="440" y="310" as="targetPoint" />
            <Array as="points">
              <mxPoint x="615" y="600" />
            </Array>
          </mxGeometry>
        </mxCell>
        <mxCell id="hZXrWDpCHOoBqw46GqGB-7" value="" style="endArrow=classic;html=1;rounded=0;entryX=0.702;entryY=0.004;entryDx=0;entryDy=0;entryPerimeter=0;" parent="1" target="h0YCEhTa5CzZRNZ8RaCe-6" edge="1">
          <mxGeometry width="50" height="50" relative="1" as="geometry">
            <mxPoint x="500" y="120" as="sourcePoint" />
            <mxPoint x="440" y="340" as="targetPoint" />
          </mxGeometry>
        </mxCell>
        <mxCell id="hZXrWDpCHOoBqw46GqGB-9" value="" style="endArrow=classic;html=1;rounded=0;exitX=1;exitY=0.5;exitDx=0;exitDy=0;entryX=0;entryY=0.5;entryDx=0;entryDy=0;" parent="1" source="h0YCEhTa5CzZRNZ8RaCe-5" target="h0YCEhTa5CzZRNZ8RaCe-7" edge="1">
          <mxGeometry width="50" height="50" relative="1" as="geometry">
            <mxPoint x="490" y="420" as="sourcePoint" />
            <mxPoint x="390" y="315" as="targetPoint" />
            <Array as="points">
              <mxPoint x="390" y="315" />
              <mxPoint x="390" y="450" />
            </Array>
          </mxGeometry>
        </mxCell>
        <mxCell id="W5yoYMiac6BtZyeg6QMr-1" value="" style="endArrow=classic;html=1;rounded=0;entryX=0.5;entryY=0;entryDx=0;entryDy=0;" edge="1" parent="1" target="h0YCEhTa5CzZRNZ8RaCe-8">
          <mxGeometry width="50" height="50" relative="1" as="geometry">
            <mxPoint x="500" y="160" as="sourcePoint" />
            <mxPoint x="440" y="380" as="targetPoint" />
            <Array as="points">
              <mxPoint x="620" y="160" />
            </Array>
          </mxGeometry>
        </mxCell>
      </root>
    </mxGraphModel>
  </diagram>
  <diagram id="la2CrniS2h7QRUoBJu_Y" name="А2">
    <mxGraphModel dx="1434" dy="790" grid="1" gridSize="10" guides="1" tooltips="1" connect="1" arrows="1" fold="1" page="1" pageScale="1" pageWidth="827" pageHeight="1169" math="0" shadow="0">
      <root>
        <mxCell id="0" />
        <mxCell id="1" parent="0" />
        <mxCell id="9SW39l6ly7WTplSCP9u1-3" value="" style="endArrow=classic;html=1;rounded=0;entryX=0.25;entryY=1;entryDx=0;entryDy=0;" parent="1" target="-fta16IMYbUVprrpylxd-5" edge="1">
          <mxGeometry width="50" height="50" relative="1" as="geometry">
            <mxPoint x="435" y="580" as="sourcePoint" />
            <mxPoint x="440" y="478" as="targetPoint" />
          </mxGeometry>
        </mxCell>
        <mxCell id="9SW39l6ly7WTplSCP9u1-4" value="Сотрудник&lt;br style=&quot;border-color: var(--border-color);&quot;&gt;производственного&lt;br style=&quot;border-color: var(--border-color);&quot;&gt;отдела" style="edgeLabel;html=1;align=center;verticalAlign=middle;resizable=0;points=[];" parent="9SW39l6ly7WTplSCP9u1-3" vertex="1" connectable="0">
          <mxGeometry x="-0.2205" relative="1" as="geometry">
            <mxPoint y="-18" as="offset" />
          </mxGeometry>
        </mxCell>
        <mxCell id="9SW39l6ly7WTplSCP9u1-11" value="" style="endArrow=classic;html=1;rounded=0;exitX=1;exitY=0.25;exitDx=0;exitDy=0;" parent="1" source="-fta16IMYbUVprrpylxd-5" edge="1">
          <mxGeometry width="50" height="50" relative="1" as="geometry">
            <mxPoint x="680" y="370.18" as="sourcePoint" />
            <mxPoint x="810" y="375" as="targetPoint" />
          </mxGeometry>
        </mxCell>
        <mxCell id="9SW39l6ly7WTplSCP9u1-12" value="Печатная продукция &lt;br&gt;или картина" style="edgeLabel;html=1;align=center;verticalAlign=middle;resizable=0;points=[];" parent="9SW39l6ly7WTplSCP9u1-11" vertex="1" connectable="0">
          <mxGeometry x="0.2128" y="1" relative="1" as="geometry">
            <mxPoint x="45" y="-24" as="offset" />
          </mxGeometry>
        </mxCell>
        <mxCell id="9SW39l6ly7WTplSCP9u1-22" value="" style="endArrow=classic;html=1;rounded=0;entryX=0.5;entryY=0;entryDx=0;entryDy=0;" parent="1" target="-fta16IMYbUVprrpylxd-2" edge="1">
          <mxGeometry width="50" height="50" relative="1" as="geometry">
            <mxPoint x="360" y="100" as="sourcePoint" />
            <mxPoint x="360" y="220" as="targetPoint" />
            <Array as="points">
              <mxPoint x="360" y="160" />
              <mxPoint x="300" y="160" />
            </Array>
          </mxGeometry>
        </mxCell>
        <mxCell id="9SW39l6ly7WTplSCP9u1-23" value="Нормы техники&lt;br&gt;безопасности" style="edgeLabel;html=1;align=center;verticalAlign=middle;resizable=0;points=[];" parent="9SW39l6ly7WTplSCP9u1-22" vertex="1" connectable="0">
          <mxGeometry x="-0.5556" relative="1" as="geometry">
            <mxPoint x="40" y="-13" as="offset" />
          </mxGeometry>
        </mxCell>
        <mxCell id="9SW39l6ly7WTplSCP9u1-24" value="" style="endArrow=classic;html=1;rounded=0;entryX=0.75;entryY=0;entryDx=0;entryDy=0;" parent="1" edge="1">
          <mxGeometry width="50" height="50" relative="1" as="geometry">
            <mxPoint x="500" y="100" as="sourcePoint" />
            <mxPoint x="500.0000000000001" y="360" as="targetPoint" />
          </mxGeometry>
        </mxCell>
        <mxCell id="9SW39l6ly7WTplSCP9u1-25" value="Регламент&lt;br&gt;производства" style="edgeLabel;html=1;align=center;verticalAlign=middle;resizable=0;points=[];" parent="9SW39l6ly7WTplSCP9u1-24" vertex="1" connectable="0">
          <mxGeometry x="-0.525" y="1" relative="1" as="geometry">
            <mxPoint y="25" as="offset" />
          </mxGeometry>
        </mxCell>
        <mxCell id="9SW39l6ly7WTplSCP9u1-29" value="" style="endArrow=classic;html=1;rounded=0;entryX=0.5;entryY=0;entryDx=0;entryDy=0;" parent="1" target="-fta16IMYbUVprrpylxd-1" edge="1">
          <mxGeometry width="50" height="50" relative="1" as="geometry">
            <mxPoint x="140" y="100" as="sourcePoint" />
            <mxPoint x="270" y="160" as="targetPoint" />
            <Array as="points" />
          </mxGeometry>
        </mxCell>
        <mxCell id="9SW39l6ly7WTplSCP9u1-30" value="Сформированный&lt;br&gt;заказ" style="edgeLabel;html=1;align=center;verticalAlign=middle;resizable=0;points=[];labelBackgroundColor=none;" parent="9SW39l6ly7WTplSCP9u1-29" vertex="1" connectable="0">
          <mxGeometry x="-0.2" relative="1" as="geometry">
            <mxPoint x="-50" y="20" as="offset" />
          </mxGeometry>
        </mxCell>
        <mxCell id="9SW39l6ly7WTplSCP9u1-31" value="" style="endArrow=classic;html=1;rounded=0;exitX=1;exitY=0.5;exitDx=0;exitDy=0;" parent="1" source="-fta16IMYbUVprrpylxd-5" edge="1">
          <mxGeometry width="50" height="50" relative="1" as="geometry">
            <mxPoint x="680" y="400" as="sourcePoint" />
            <mxPoint x="810" y="390" as="targetPoint" />
            <Array as="points" />
          </mxGeometry>
        </mxCell>
        <mxCell id="9SW39l6ly7WTplSCP9u1-32" value="Готовая продукция&lt;br&gt;к доставке" style="edgeLabel;html=1;align=center;verticalAlign=middle;resizable=0;points=[];" parent="9SW39l6ly7WTplSCP9u1-31" vertex="1" connectable="0">
          <mxGeometry x="0.4486" relative="1" as="geometry">
            <mxPoint x="16" y="20" as="offset" />
          </mxGeometry>
        </mxCell>
        <mxCell id="-fta16IMYbUVprrpylxd-1" value="Определение типов работ" style="rounded=0;whiteSpace=wrap;html=1;" parent="1" vertex="1">
          <mxGeometry x="80" y="200" width="120" height="40" as="geometry" />
        </mxCell>
        <mxCell id="-fta16IMYbUVprrpylxd-2" value="Подготовка материалов" style="rounded=0;whiteSpace=wrap;html=1;" parent="1" vertex="1">
          <mxGeometry x="240" y="280" width="120" height="40" as="geometry" />
        </mxCell>
        <mxCell id="-fta16IMYbUVprrpylxd-5" value="Типографические&lt;br/&gt;работы (оформление в багет)" style="rounded=0;whiteSpace=wrap;html=1;" parent="1" vertex="1">
          <mxGeometry x="400" y="360" width="140" height="60" as="geometry" />
        </mxCell>
        <mxCell id="-fta16IMYbUVprrpylxd-6" value="Документация статуса выполнения" style="rounded=0;whiteSpace=wrap;html=1;" parent="1" vertex="1">
          <mxGeometry x="580" y="460" width="120" height="40" as="geometry" />
        </mxCell>
        <mxCell id="-fta16IMYbUVprrpylxd-7" value="" style="endArrow=classic;html=1;rounded=0;entryX=0.25;entryY=0;entryDx=0;entryDy=0;" parent="1" target="-fta16IMYbUVprrpylxd-5" edge="1">
          <mxGeometry width="50" height="50" relative="1" as="geometry">
            <mxPoint x="360" y="160" as="sourcePoint" />
            <mxPoint x="460" y="300" as="targetPoint" />
            <Array as="points">
              <mxPoint x="435" y="160" />
            </Array>
          </mxGeometry>
        </mxCell>
        <mxCell id="-fta16IMYbUVprrpylxd-8" value="" style="endArrow=classic;html=1;rounded=0;entryX=0.5;entryY=1;entryDx=0;entryDy=0;" parent="1" target="-fta16IMYbUVprrpylxd-6" edge="1">
          <mxGeometry width="50" height="50" relative="1" as="geometry">
            <mxPoint x="640" y="580" as="sourcePoint" />
            <mxPoint x="460" y="370" as="targetPoint" />
          </mxGeometry>
        </mxCell>
        <mxCell id="-fta16IMYbUVprrpylxd-9" value="[Ответственный за заказ]" style="edgeLabel;html=1;align=center;verticalAlign=middle;resizable=0;points=[];" parent="-fta16IMYbUVprrpylxd-8" vertex="1" connectable="0">
          <mxGeometry x="0.3111" y="-2" relative="1" as="geometry">
            <mxPoint x="-2" y="22" as="offset" />
          </mxGeometry>
        </mxCell>
        <mxCell id="-fta16IMYbUVprrpylxd-10" value="" style="endArrow=classic;html=1;rounded=0;entryX=0.5;entryY=1;entryDx=0;entryDy=0;" parent="1" target="-fta16IMYbUVprrpylxd-1" edge="1">
          <mxGeometry width="50" height="50" relative="1" as="geometry">
            <mxPoint x="139.44" y="570" as="sourcePoint" />
            <mxPoint x="139.44" y="490" as="targetPoint" />
          </mxGeometry>
        </mxCell>
        <mxCell id="-fta16IMYbUVprrpylxd-11" value="[Ответственный за заказ]" style="edgeLabel;html=1;align=center;verticalAlign=middle;resizable=0;points=[];" parent="-fta16IMYbUVprrpylxd-10" vertex="1" connectable="0">
          <mxGeometry x="0.3111" y="-2" relative="1" as="geometry">
            <mxPoint x="-2" y="97" as="offset" />
          </mxGeometry>
        </mxCell>
        <mxCell id="-fta16IMYbUVprrpylxd-12" value="" style="endArrow=classic;html=1;rounded=0;entryX=0.5;entryY=1;entryDx=0;entryDy=0;" parent="1" target="-fta16IMYbUVprrpylxd-2" edge="1">
          <mxGeometry width="50" height="50" relative="1" as="geometry">
            <mxPoint x="140" y="400" as="sourcePoint" />
            <mxPoint x="460" y="370" as="targetPoint" />
            <Array as="points">
              <mxPoint x="300" y="400" />
            </Array>
          </mxGeometry>
        </mxCell>
        <mxCell id="-fta16IMYbUVprrpylxd-13" value="" style="endArrow=classic;html=1;rounded=0;exitX=1;exitY=0.5;exitDx=0;exitDy=0;entryX=0;entryY=0.5;entryDx=0;entryDy=0;" parent="1" source="-fta16IMYbUVprrpylxd-1" target="-fta16IMYbUVprrpylxd-2" edge="1">
          <mxGeometry width="50" height="50" relative="1" as="geometry">
            <mxPoint x="440" y="360" as="sourcePoint" />
            <mxPoint x="490" y="310" as="targetPoint" />
            <Array as="points">
              <mxPoint x="220" y="220" />
              <mxPoint x="220" y="300" />
            </Array>
          </mxGeometry>
        </mxCell>
        <mxCell id="-fta16IMYbUVprrpylxd-14" value="Перечень &lt;br&gt;требуемых &lt;br&gt;материалов" style="edgeLabel;html=1;align=center;verticalAlign=middle;resizable=0;points=[];" parent="-fta16IMYbUVprrpylxd-13" vertex="1" connectable="0">
          <mxGeometry x="-0.25" y="2" relative="1" as="geometry">
            <mxPoint x="-32" y="25" as="offset" />
          </mxGeometry>
        </mxCell>
        <mxCell id="-fta16IMYbUVprrpylxd-15" value="" style="endArrow=classic;html=1;rounded=0;exitX=1;exitY=0.5;exitDx=0;exitDy=0;entryX=0;entryY=0.5;entryDx=0;entryDy=0;" parent="1" source="-fta16IMYbUVprrpylxd-2" target="-fta16IMYbUVprrpylxd-5" edge="1">
          <mxGeometry width="50" height="50" relative="1" as="geometry">
            <mxPoint x="360" y="310" as="sourcePoint" />
            <mxPoint x="410" y="260" as="targetPoint" />
            <Array as="points">
              <mxPoint x="380" y="300" />
              <mxPoint x="380" y="390" />
            </Array>
          </mxGeometry>
        </mxCell>
        <mxCell id="-fta16IMYbUVprrpylxd-16" value="Материалы для &lt;br&gt;производства" style="edgeLabel;html=1;align=center;verticalAlign=middle;resizable=0;points=[];" parent="-fta16IMYbUVprrpylxd-15" vertex="1" connectable="0">
          <mxGeometry x="0.0456" relative="1" as="geometry">
            <mxPoint x="-30" as="offset" />
          </mxGeometry>
        </mxCell>
        <mxCell id="-fta16IMYbUVprrpylxd-17" value="" style="endArrow=classic;html=1;rounded=0;exitX=1;exitY=0.75;exitDx=0;exitDy=0;entryX=0;entryY=0.5;entryDx=0;entryDy=0;" parent="1" source="-fta16IMYbUVprrpylxd-5" target="-fta16IMYbUVprrpylxd-6" edge="1">
          <mxGeometry width="50" height="50" relative="1" as="geometry">
            <mxPoint x="570" y="430" as="sourcePoint" />
            <mxPoint x="620" y="380" as="targetPoint" />
            <Array as="points">
              <mxPoint x="560" y="405" />
              <mxPoint x="560" y="480" />
            </Array>
          </mxGeometry>
        </mxCell>
        <mxCell id="-fta16IMYbUVprrpylxd-18" value="Информация о&lt;br&gt;ходе работы" style="edgeLabel;html=1;align=center;verticalAlign=middle;resizable=0;points=[];" parent="-fta16IMYbUVprrpylxd-17" vertex="1" connectable="0">
          <mxGeometry x="-0.066" y="-2" relative="1" as="geometry">
            <mxPoint x="-38" y="11" as="offset" />
          </mxGeometry>
        </mxCell>
        <mxCell id="-fta16IMYbUVprrpylxd-19" value="" style="endArrow=classic;html=1;rounded=0;exitX=1;exitY=0.5;exitDx=0;exitDy=0;" parent="1" source="-fta16IMYbUVprrpylxd-6" edge="1">
          <mxGeometry width="50" height="50" relative="1" as="geometry">
            <mxPoint x="570" y="430" as="sourcePoint" />
            <mxPoint x="810" y="480" as="targetPoint" />
          </mxGeometry>
        </mxCell>
        <mxCell id="-fta16IMYbUVprrpylxd-20" value="[Производственная&lt;br&gt;документация]" style="edgeLabel;html=1;align=center;verticalAlign=middle;resizable=0;points=[];" parent="-fta16IMYbUVprrpylxd-19" vertex="1" connectable="0">
          <mxGeometry x="0.4481" y="-1" relative="1" as="geometry">
            <mxPoint x="-20" y="19" as="offset" />
          </mxGeometry>
        </mxCell>
        <mxCell id="-fta16IMYbUVprrpylxd-21" value="" style="endArrow=classic;html=1;rounded=0;entryX=0.5;entryY=0;entryDx=0;entryDy=0;" parent="1" target="-fta16IMYbUVprrpylxd-6" edge="1">
          <mxGeometry width="50" height="50" relative="1" as="geometry">
            <mxPoint x="500" y="240" as="sourcePoint" />
            <mxPoint x="470" y="260" as="targetPoint" />
            <Array as="points">
              <mxPoint x="640" y="240" />
            </Array>
          </mxGeometry>
        </mxCell>
      </root>
    </mxGraphModel>
  </diagram>
</mxfile>
